STARTFONT 2.1
COMMENT
COMMENT Converted from OpenType font "FreeUniversal-Regular.ttf" by "otf2bdf 3.0".
COMMENT
FONT -FreeType-FreeUniversal-Medium-R-Normal--28-280-72-72-P-133-ISO10646-1
SIZE 28 72 72
FONTBOUNDINGBOX 38 35 -2 -7
STARTPROPERTIES 19
FOUNDRY "FreeType"
FAMILY_NAME "FreeUniversal"
WEIGHT_NAME "Medium"
SLANT "R"
SETWIDTH_NAME "Normal"
ADD_STYLE_NAME ""
PIXEL_SIZE 28
POINT_SIZE 280
RESOLUTION_X 72
RESOLUTION_Y 72
SPACING "P"
AVERAGE_WIDTH 133
CHARSET_REGISTRY "ISO10646"
CHARSET_ENCODING "1"
FONT_ASCENT 29
FONT_DESCENT 7
COPYRIGHT "(FreeUniversal) Copyright (c) Stephen Wilson 2009    a modification of:    Original Font (SIL Sophia)  Copyright (c) SIL International, 1994-2008.    "
_OTF_FONTFILE "FreeUniversal-Regular.ttf"
_OTF_PSNAME "FreeUniversal-Regular"
ENDPROPERTIES
CHARS 243
STARTCHAR 0020
ENCODING 32
SWIDTH 285 0
DWIDTH 8 0
BBX 0 0 0 0
BITMAP
ENDCHAR
STARTCHAR 0021
ENCODING 33
SWIDTH 392 0
DWIDTH 11 0
BBX 3 20 4 0
BITMAP
E0
E0
E0
E0
E0
E0
E0
E0
E0
E0
E0
E0
E0
E0
E0
00
00
E0
E0
E0
ENDCHAR
STARTCHAR 0022
ENCODING 34
SWIDTH 464 0
DWIDTH 13 0
BBX 9 8 2 12
BITMAP
E380
E380
E300
E300
E300
C300
C300
4300
ENDCHAR
STARTCHAR 0023
ENCODING 35
SWIDTH 750 0
DWIDTH 21 0
BBX 18 20 1 0
BITMAP
00C300
00C300
00C300
01C600
018600
018600
1FFFC0
3FFFC0
030C00
031800
061800
061800
7FFF80
FFFF00
0C3000
0C3000
1C6000
186000
186000
18C000
ENDCHAR
STARTCHAR 0024
ENCODING 36
SWIDTH 571 0
DWIDTH 16 0
BBX 14 25 1 -3
BITMAP
0200
0200
1FC0
3FE0
7270
6230
E238
E200
E200
7200
7E00
3FE0
0FF0
02F8
0238
021C
E21C
E21C
E218
7238
7FF0
1FC0
0200
0200
0200
ENDCHAR
STARTCHAR 0025
ENCODING 37
SWIDTH 892 0
DWIDTH 25 0
BBX 23 20 1 0
BITMAP
1E00C0
7F80C0
618180
E1C100
E1C300
E1C600
E1C600
618C00
7F8800
1E18E0
0031F8
00339C
00670E
00470E
00C70E
01870E
01870E
03030C
0203FC
0600F0
ENDCHAR
STARTCHAR 0026
ENCODING 38
SWIDTH 785 0
DWIDTH 22 0
BBX 19 20 2 0
BITMAP
07C000
1FF000
383000
383000
383000
387000
1DE000
0FC000
1F0380
3F8380
73C380
E1E380
E0F300
E07B00
E03F00
E01E00
700F00
781F80
3FFBC0
0FE1E0
ENDCHAR
STARTCHAR 0027
ENCODING 39
SWIDTH 357 0
DWIDTH 10 0
BBX 3 8 4 12
BITMAP
E0
E0
C0
C0
C0
C0
C0
C0
ENDCHAR
STARTCHAR 0028
ENCODING 40
SWIDTH 357 0
DWIDTH 10 0
BBX 5 24 3 -4
BITMAP
18
30
30
70
70
60
60
E0
E0
E0
E0
E0
E0
E0
E0
E0
E0
60
60
70
70
30
30
18
ENDCHAR
STARTCHAR 0029
ENCODING 41
SWIDTH 357 0
DWIDTH 10 0
BBX 5 24 3 -4
BITMAP
C0
C0
60
60
60
70
70
30
30
30
38
38
38
38
30
30
30
70
70
60
60
60
C0
C0
ENDCHAR
STARTCHAR 002A
ENCODING 42
SWIDTH 678 0
DWIDTH 19 0
BBX 11 11 4 9
BITMAP
1100
3180
1B00
1B00
0E00
FFE0
8E20
1B00
1B00
3180
1100
ENDCHAR
STARTCHAR 002B
ENCODING 43
SWIDTH 1035 0
DWIDTH 29 0
BBX 17 16 6 0
BITMAP
018000
018000
018000
018000
018000
018000
018000
FFFF80
FFFF80
018000
018000
018000
018000
018000
018000
018000
ENDCHAR
STARTCHAR 002C
ENCODING 44
SWIDTH 285 0
DWIDTH 8 0
BBX 5 7 1 -3
BITMAP
38
38
70
70
60
60
E0
ENDCHAR
STARTCHAR 002D
ENCODING 45
SWIDTH 321 0
DWIDTH 9 0
BBX 7 2 1 6
BITMAP
FE
FE
ENDCHAR
STARTCHAR 002E
ENCODING 46
SWIDTH 285 0
DWIDTH 8 0
BBX 3 3 3 0
BITMAP
E0
E0
E0
ENDCHAR
STARTCHAR 002F
ENCODING 47
SWIDTH 392 0
DWIDTH 11 0
BBX 8 21 2 -1
BITMAP
03
06
06
06
04
0C
0C
0C
18
18
18
30
30
30
60
60
60
40
C0
C0
C0
ENDCHAR
STARTCHAR 0030
ENCODING 48
SWIDTH 571 0
DWIDTH 16 0
BBX 13 20 1 0
BITMAP
0F80
3FC0
70E0
6070
6070
E030
E030
E038
E038
E038
E038
E038
E038
E030
E030
6070
7070
30E0
3FC0
0F80
ENDCHAR
STARTCHAR 0031
ENCODING 49
SWIDTH 571 0
DWIDTH 16 0
BBX 7 20 4 0
BITMAP
1E
3E
7E
FE
CE
0E
0E
0E
0E
0E
0E
0E
0E
0E
0E
0E
0E
0E
0E
0E
ENDCHAR
STARTCHAR 0032
ENCODING 50
SWIDTH 571 0
DWIDTH 16 0
BBX 12 20 2 0
BITMAP
1F80
3FC0
7060
7070
E070
0070
0070
0070
00E0
01E0
03C0
0380
0700
0E00
1C00
3C00
7800
F000
FFF0
FFF0
ENDCHAR
STARTCHAR 0033
ENCODING 51
SWIDTH 571 0
DWIDTH 16 0
BBX 13 20 1 0
BITMAP
0F80
3FE0
7070
7030
E038
0038
0030
00E0
07C0
07C0
00E0
0070
0038
0038
E038
E038
E038
7070
3FE0
1F80
ENDCHAR
STARTCHAR 0034
ENCODING 52
SWIDTH 571 0
DWIDTH 16 0
BBX 14 20 1 0
BITMAP
00F0
01F0
01F0
03F0
0770
0670
0E70
1C70
1870
3870
7070
6070
E070
FFFC
FFFC
0070
0070
0070
0070
0070
ENDCHAR
STARTCHAR 0035
ENCODING 53
SWIDTH 571 0
DWIDTH 16 0
BBX 13 20 1 0
BITMAP
FFE0
FFE0
E000
E000
E000
E000
E000
EF80
FFE0
F070
E070
E030
0038
0038
0038
E030
E070
70E0
7FC0
1F80
ENDCHAR
STARTCHAR 0036
ENCODING 54
SWIDTH 571 0
DWIDTH 16 0
BBX 13 20 1 0
BITMAP
0FC0
3FE0
7870
7030
E038
E000
E000
E7C0
FFE0
F8F0
E038
E038
E038
E038
E038
E038
6030
3070
3FE0
0F80
ENDCHAR
STARTCHAR 0037
ENCODING 55
SWIDTH 571 0
DWIDTH 16 0
BBX 12 20 2 0
BITMAP
FFF0
FFF0
0070
0070
0060
00E0
00E0
01C0
01C0
0180
0380
0380
0300
0700
0700
0E00
0E00
0E00
1C00
1C00
ENDCHAR
STARTCHAR 0038
ENCODING 56
SWIDTH 571 0
DWIDTH 16 0
BBX 13 20 1 0
BITMAP
0F80
3FE0
7070
E030
E038
E038
6030
7070
1FC0
1FC0
3860
6030
E038
E038
E038
E038
E038
7070
3FE0
0F80
ENDCHAR
STARTCHAR 0039
ENCODING 57
SWIDTH 571 0
DWIDTH 16 0
BBX 13 20 1 0
BITMAP
1FC0
3FE0
7070
E038
E038
E038
E038
E038
E038
7078
3FF8
1F38
0038
0038
0038
6030
6070
70E0
3FC0
1F80
ENDCHAR
STARTCHAR 003A
ENCODING 58
SWIDTH 285 0
DWIDTH 8 0
BBX 3 14 3 0
BITMAP
E0
E0
E0
00
00
00
00
00
00
00
00
E0
E0
E0
ENDCHAR
STARTCHAR 003B
ENCODING 59
SWIDTH 285 0
DWIDTH 8 0
BBX 4 17 2 -3
BITMAP
70
70
70
00
00
00
00
00
00
00
70
70
60
E0
C0
C0
C0
ENDCHAR
STARTCHAR 003C
ENCODING 60
SWIDTH 1035 0
DWIDTH 29 0
BBX 17 14 6 1
BITMAP
000180
000F80
007C00
01E000
0F0000
780000
E00000
F00000
3E0000
078000
00F000
003E00
000780
000080
ENDCHAR
STARTCHAR 003D
ENCODING 61
SWIDTH 1035 0
DWIDTH 29 0
BBX 17 7 6 5
BITMAP
FFFF80
FFFF80
000000
000000
000000
FFFF80
FFFF80
ENDCHAR
STARTCHAR 003E
ENCODING 62
SWIDTH 1035 0
DWIDTH 29 0
BBX 17 14 6 1
BITMAP
C00000
F80000
1F0000
03C000
007800
000F00
000380
000780
003E00
00F000
078000
3E0000
F00000
800000
ENDCHAR
STARTCHAR 003F
ENCODING 63
SWIDTH 535 0
DWIDTH 15 0
BBX 12 20 1 0
BITMAP
1F00
3FC0
7FE0
E0F0
4070
0070
0070
0060
00C0
0380
0700
0E00
0E00
0E00
0E00
0000
0000
0E00
0E00
0E00
ENDCHAR
STARTCHAR 0040
ENCODING 64
SWIDTH 1000 0
DWIDTH 28 0
BBX 25 24 2 -4
BITMAP
007F0000
03FFE000
0F81F800
1E003C00
38000E00
30000600
707DC700
60FFC700
E1C3C300
E383C300
E381C380
E381C380
E381C380
E381C300
E381C300
E183C700
71C7CE00
70FCFC00
38383000
3C000000
1E000000
0F804000
03FFC000
007F8000
ENDCHAR
STARTCHAR 0041
ENCODING 65
SWIDTH 750 0
DWIDTH 21 0
BBX 19 20 1 0
BITMAP
00E000
01F000
01F000
03B000
03B800
033800
071C00
071C00
0E0E00
0E0E00
1E0F00
1C0700
1C0700
3FFF80
3FFF80
7001C0
7001C0
E000E0
E000E0
E000E0
ENDCHAR
STARTCHAR 0042
ENCODING 66
SWIDTH 678 0
DWIDTH 19 0
BBX 15 20 2 0
BITMAP
FFE0
FFF8
E078
E01C
E01C
E01C
E01C
E018
E038
FFE0
FFF0
E01C
E00C
E00E
E00E
E00E
E01E
E03C
FFF8
FFE0
ENDCHAR
STARTCHAR 0043
ENCODING 67
SWIDTH 678 0
DWIDTH 19 0
BBX 16 20 2 0
BITMAP
07F0
1FFC
3C0E
3006
7007
6000
E000
E000
E000
E000
E000
E000
E000
E000
6000
6007
7006
380E
1FFC
07F0
ENDCHAR
STARTCHAR 0044
ENCODING 68
SWIDTH 714 0
DWIDTH 20 0
BBX 16 20 2 0
BITMAP
FFC0
FFF0
E078
E01C
E00E
E00E
E007
E007
E007
E007
E007
E007
E007
E007
E00E
E00E
E01C
E078
FFF0
FFC0
ENDCHAR
STARTCHAR 0045
ENCODING 69
SWIDTH 607 0
DWIDTH 17 0
BBX 13 20 2 0
BITMAP
FFF8
FFF8
E000
E000
E000
E000
E000
E000
E000
FFF0
FFF0
E000
E000
E000
E000
E000
E000
E000
FFF8
FFF8
ENDCHAR
STARTCHAR 0046
ENCODING 70
SWIDTH 571 0
DWIDTH 16 0
BBX 12 20 2 0
BITMAP
FFF0
FFF0
E000
E000
E000
E000
E000
E000
E000
FFE0
FFE0
E000
E000
E000
E000
E000
E000
E000
E000
E000
ENDCHAR
STARTCHAR 0047
ENCODING 71
SWIDTH 785 0
DWIDTH 22 0
BBX 18 20 2 0
BITMAP
03F800
0FFE00
1E0F80
380380
7001C0
600000
E00000
E00000
E00000
E03FC0
E03FC0
E001C0
E001C0
E001C0
7001C0
7001C0
3801C0
1E07C0
0FFFC0
03FE00
ENDCHAR
STARTCHAR 0048
ENCODING 72
SWIDTH 678 0
DWIDTH 19 0
BBX 15 20 2 0
BITMAP
E00E
E00E
E00E
E00E
E00E
E00E
E00E
E00E
E00E
FFFE
FFFE
E00E
E00E
E00E
E00E
E00E
E00E
E00E
E00E
E00E
ENDCHAR
STARTCHAR 0049
ENCODING 73
SWIDTH 250 0
DWIDTH 7 0
BBX 3 20 2 0
BITMAP
E0
E0
E0
E0
E0
E0
E0
E0
E0
E0
E0
E0
E0
E0
E0
E0
E0
E0
E0
E0
ENDCHAR
STARTCHAR 004A
ENCODING 74
SWIDTH 571 0
DWIDTH 16 0
BBX 12 20 2 0
BITMAP
0070
0070
0070
0070
0070
0070
0070
0070
0070
0070
0070
0070
0070
0070
0070
E070
E060
71E0
3FC0
1F80
ENDCHAR
STARTCHAR 004B
ENCODING 75
SWIDTH 642 0
DWIDTH 18 0
BBX 15 20 2 0
BITMAP
E03C
E078
E0F0
E0E0
E1C0
E380
E700
EE00
FC00
FE00
EE00
EF00
E780
E3C0
E1E0
E0F0
E078
E038
E03C
E01E
ENDCHAR
STARTCHAR 004C
ENCODING 76
SWIDTH 535 0
DWIDTH 15 0
BBX 12 20 2 0
BITMAP
E000
E000
E000
E000
E000
E000
E000
E000
E000
E000
E000
E000
E000
E000
E000
E000
E000
E000
FFF0
FFF0
ENDCHAR
STARTCHAR 004D
ENCODING 77
SWIDTH 892 0
DWIDTH 25 0
BBX 21 20 2 0
BITMAP
F800F8
F800F8
F801F8
FC01F8
FC01B8
EC03B8
EE03B8
EE0338
E60738
E70638
E30E38
E38E38
E38C38
E19C38
E1DC38
E1D838
E0F838
E0F038
E07038
E07038
ENDCHAR
STARTCHAR 004E
ENCODING 78
SWIDTH 714 0
DWIDTH 20 0
BBX 16 20 2 0
BITMAP
F007
F807
F807
FC07
FC07
EE07
EE07
E707
E787
E387
E3C7
E1C7
E0E7
E0E7
E077
E077
E03F
E03F
E01F
E01F
ENDCHAR
STARTCHAR 004F
ENCODING 79
SWIDTH 785 0
DWIDTH 22 0
BBX 18 20 2 0
BITMAP
03F000
0FFC00
3E1F00
380700
700380
600180
E001C0
E001C0
E001C0
E001C0
E001C0
E001C0
E001C0
6001C0
700380
700380
380700
1E1E00
0FFC00
03F000
ENDCHAR
STARTCHAR 0050
ENCODING 80
SWIDTH 607 0
DWIDTH 17 0
BBX 14 20 2 0
BITMAP
FFC0
FFF0
E078
E038
E01C
E01C
E01C
E038
E078
FFF0
FFC0
E000
E000
E000
E000
E000
E000
E000
E000
E000
ENDCHAR
STARTCHAR 0051
ENCODING 81
SWIDTH 785 0
DWIDTH 22 0
BBX 20 20 2 0
BITMAP
03F000
0FFC00
3E1F00
380700
700380
600180
E001C0
E001C0
E001C0
E001C0
E001C0
E001C0
E001C0
6001C0
700380
700380
380700
1E1E00
0FFFF0
03FFF0
ENDCHAR
STARTCHAR 0052
ENCODING 82
SWIDTH 607 0
DWIDTH 17 0
BBX 14 20 2 0
BITMAP
FFC0
FFF0
E078
E038
E01C
E01C
E01C
E038
E070
FFE0
FFE0
E070
E038
E038
E038
E018
E018
E018
E01C
E01C
ENDCHAR
STARTCHAR 0053
ENCODING 83
SWIDTH 678 0
DWIDTH 19 0
BBX 15 20 2 0
BITMAP
0FC0
3FF0
7878
601C
E01C
E000
E000
7800
7F00
3FF0
07FC
003C
000E
000E
E00E
E00E
E00E
783C
3FF8
0FC0
ENDCHAR
STARTCHAR 0054
ENCODING 84
SWIDTH 642 0
DWIDTH 18 0
BBX 16 20 1 0
BITMAP
FFFF
FFFF
01C0
01C0
01C0
01C0
01C0
01C0
01C0
01C0
01C0
01C0
01C0
01C0
01C0
01C0
01C0
01C0
01C0
01C0
ENDCHAR
STARTCHAR 0055
ENCODING 85
SWIDTH 714 0
DWIDTH 20 0
BBX 16 20 2 0
BITMAP
E007
E007
E007
E007
E007
E007
E007
E007
E007
E007
E007
E007
E007
E007
E007
6006
700E
3C3C
1FF8
0FE0
ENDCHAR
STARTCHAR 0056
ENCODING 86
SWIDTH 642 0
DWIDTH 18 0
BBX 17 20 1 0
BITMAP
E00380
E00700
E00700
700700
700E00
700E00
380E00
381C00
381C00
1C3800
1C3800
0C3800
0E7000
0E7000
077000
07E000
07E000
03E000
03C000
03C000
ENDCHAR
STARTCHAR 0057
ENCODING 87
SWIDTH 964 0
DWIDTH 27 0
BBX 26 20 1 0
BITMAP
E01C01C0
E01E0380
E03E0380
E03E0380
70360300
70770700
70730700
30630700
38638600
38E38E00
18E18E00
1CC18C00
1CC1DC00
1DC1DC00
0DC0D800
0F80D800
0F80F800
07807800
07007000
07007000
ENDCHAR
STARTCHAR 0058
ENCODING 88
SWIDTH 714 0
DWIDTH 20 0
BBX 18 20 1 0
BITMAP
780780
380700
3C0E00
1E1E00
0E1C00
0F3800
073800
03F000
01E000
01E000
03E000
03F000
077800
0E3800
0E1C00
1C1E00
380F00
780700
700780
E003C0
ENDCHAR
STARTCHAR 0059
ENCODING 89
SWIDTH 678 0
DWIDTH 19 0
BBX 17 20 1 0
BITMAP
E00380
F00700
700700
380E00
3C1C00
1C1C00
0E3800
0E3000
077000
076000
03E000
01C000
01C000
01C000
01C000
01C000
01C000
01C000
01C000
01C000
ENDCHAR
STARTCHAR 005A
ENCODING 90
SWIDTH 607 0
DWIDTH 17 0
BBX 15 20 1 0
BITMAP
FFFC
FFFC
001C
0038
0078
00F0
00E0
01C0
03C0
0380
0700
0E00
1E00
1C00
3800
7000
F000
E000
FFFE
FFFE
ENDCHAR
STARTCHAR 005B
ENCODING 91
SWIDTH 392 0
DWIDTH 11 0
BBX 5 25 3 -5
BITMAP
F8
F8
E0
E0
E0
E0
E0
E0
E0
E0
E0
E0
E0
E0
E0
E0
E0
E0
E0
E0
E0
E0
E0
F8
F8
ENDCHAR
STARTCHAR 005C
ENCODING 92
SWIDTH 392 0
DWIDTH 11 0
BBX 9 21 1 -1
BITMAP
C000
6000
6000
6000
3000
3000
3000
1800
1800
1800
0800
0C00
0C00
0C00
0600
0600
0600
0300
0300
0300
0180
ENDCHAR
STARTCHAR 005D
ENCODING 93
SWIDTH 428 0
DWIDTH 12 0
BBX 6 25 3 -5
BITMAP
FC
FC
1C
1C
1C
1C
1C
1C
1C
1C
1C
1C
1C
1C
1C
1C
1C
1C
1C
1C
1C
1C
1C
FC
FC
ENDCHAR
STARTCHAR 005E
ENCODING 94
SWIDTH 1000 0
DWIDTH 28 0
BBX 14 17 7 0
BITMAP
0300
0300
0780
0780
0480
0CC0
0840
1860
1860
1020
3030
3030
6018
6018
4008
C00C
C00C
ENDCHAR
STARTCHAR 005F
ENCODING 95
SWIDTH 500 0
DWIDTH 14 0
BBX 14 2 0 -4
BITMAP
FFFC
FFFC
ENDCHAR
STARTCHAR 0060
ENCODING 96
SWIDTH 214 0
DWIDTH 6 0
BBX 6 5 -1 16
BITMAP
E0
70
30
18
0C
ENDCHAR
STARTCHAR 0061
ENCODING 97
SWIDTH 535 0
DWIDTH 15 0
BBX 12 14 1 0
BITMAP
1FC0
3FE0
7070
7070
0070
0FF0
3FF0
7070
E070
E070
E070
E0F0
7FB0
1E30
ENDCHAR
STARTCHAR 0062
ENCODING 98
SWIDTH 571 0
DWIDTH 16 0
BBX 13 20 2 0
BITMAP
E000
E000
E000
E000
E000
E000
E7C0
FFE0
F070
E030
E038
E038
E038
E038
E038
E038
E070
F070
FFE0
E780
ENDCHAR
STARTCHAR 0063
ENCODING 99
SWIDTH 500 0
DWIDTH 14 0
BBX 12 14 1 0
BITMAP
1F80
3FE0
7070
E070
E070
E000
E000
E000
E000
E070
6070
70E0
3FE0
1F80
ENDCHAR
STARTCHAR 0064
ENCODING 100
SWIDTH 571 0
DWIDTH 16 0
BBX 13 20 1 0
BITMAP
0038
0038
0038
0038
0038
0038
1F38
3FF8
70F8
6078
E038
E038
E038
E038
E038
E038
7038
7078
3FF8
0FB8
ENDCHAR
STARTCHAR 0065
ENCODING 101
SWIDTH 535 0
DWIDTH 15 0
BBX 13 14 1 0
BITMAP
0F80
3FE0
7070
6030
E038
FFF8
FFF8
E000
E000
E038
6070
7070
3FE0
0F80
ENDCHAR
STARTCHAR 0066
ENCODING 102
SWIDTH 357 0
DWIDTH 10 0
BBX 9 20 1 0
BITMAP
0780
1F80
1C00
1C00
1C00
1C00
FF80
FF80
1C00
1C00
1C00
1C00
1C00
1C00
1C00
1C00
1C00
1C00
1C00
1C00
ENDCHAR
STARTCHAR 0067
ENCODING 103
SWIDTH 571 0
DWIDTH 16 0
BBX 13 19 1 -5
BITMAP
1FB8
3FF8
7078
6038
E038
E038
E038
E038
E038
E038
6038
7078
3FF8
1F38
0038
7030
7070
3FE0
0F80
ENDCHAR
STARTCHAR 0068
ENCODING 104
SWIDTH 571 0
DWIDTH 16 0
BBX 12 20 2 0
BITMAP
E000
E000
E000
E000
E000
E000
EFC0
FFE0
F0F0
E070
E070
E070
E070
E070
E070
E070
E070
E070
E070
E070
ENDCHAR
STARTCHAR 0069
ENCODING 105
SWIDTH 250 0
DWIDTH 7 0
BBX 3 20 2 0
BITMAP
E0
E0
E0
00
00
00
E0
E0
E0
E0
E0
E0
E0
E0
E0
E0
E0
E0
E0
E0
ENDCHAR
STARTCHAR 006A
ENCODING 106
SWIDTH 250 0
DWIDTH 7 0
BBX 5 25 1 -5
BITMAP
38
38
38
00
00
00
38
38
38
38
38
38
38
38
38
38
38
38
38
38
38
38
38
F0
E0
ENDCHAR
STARTCHAR 006B
ENCODING 107
SWIDTH 500 0
DWIDTH 14 0
BBX 11 20 2 0
BITMAP
E000
E000
E000
E000
E000
E000
E1E0
E1C0
E380
E700
EE00
FC00
FC00
FE00
EE00
E700
E380
E3C0
E1C0
E0E0
ENDCHAR
STARTCHAR 006C
ENCODING 108
SWIDTH 250 0
DWIDTH 7 0
BBX 3 20 2 0
BITMAP
E0
E0
E0
E0
E0
E0
E0
E0
E0
E0
E0
E0
E0
E0
E0
E0
E0
E0
E0
E0
ENDCHAR
STARTCHAR 006D
ENCODING 109
SWIDTH 892 0
DWIDTH 25 0
BBX 21 14 2 0
BITMAP
E7C3E0
FFEFF0
F0F838
E07838
E07018
E07018
E07018
E07018
E07018
E07018
E07018
E07018
E07018
E07018
ENDCHAR
STARTCHAR 006E
ENCODING 110
SWIDTH 571 0
DWIDTH 16 0
BBX 12 14 2 0
BITMAP
EF80
FFE0
F0F0
E070
E070
E070
E070
E070
E070
E070
E070
E070
E070
E070
ENDCHAR
STARTCHAR 006F
ENCODING 111
SWIDTH 571 0
DWIDTH 16 0
BBX 14 14 1 0
BITMAP
0FC0
3FE0
7070
7038
E018
E01C
E01C
E01C
E01C
E018
7038
7070
3FE0
0FC0
ENDCHAR
STARTCHAR 0070
ENCODING 112
SWIDTH 607 0
DWIDTH 17 0
BBX 14 19 2 -5
BITMAP
E7C0
FFF0
F070
F038
E018
E01C
E01C
E01C
E01C
E018
E038
F070
FFF0
E7C0
E000
E000
E000
E000
E000
ENDCHAR
STARTCHAR 0071
ENCODING 113
SWIDTH 607 0
DWIDTH 17 0
BBX 14 19 1 -5
BITMAP
0F9C
3FDC
707C
703C
E01C
E01C
E01C
E01C
E01C
E01C
603C
707C
3FFC
0F9C
001C
001C
001C
001C
001C
ENDCHAR
STARTCHAR 0072
ENCODING 114
SWIDTH 357 0
DWIDTH 10 0
BBX 8 14 2 0
BITMAP
EF
FF
F0
E0
E0
E0
E0
E0
E0
E0
E0
E0
E0
E0
ENDCHAR
STARTCHAR 0073
ENCODING 115
SWIDTH 500 0
DWIDTH 14 0
BBX 12 14 1 0
BITMAP
1F80
7FC0
70E0
E0E0
E000
7800
3F80
0FE0
00E0
0070
E070
E0E0
7FC0
3F80
ENDCHAR
STARTCHAR 0074
ENCODING 116
SWIDTH 357 0
DWIDTH 10 0
BBX 8 18 1 0
BITMAP
08
38
38
38
FF
FF
38
38
38
38
38
38
38
38
38
38
1F
0F
ENDCHAR
STARTCHAR 0075
ENCODING 117
SWIDTH 571 0
DWIDTH 16 0
BBX 12 14 2 0
BITMAP
E070
E070
E070
E070
E070
E070
E070
E070
E070
E070
E070
F0F0
7FF0
3F70
ENDCHAR
STARTCHAR 0076
ENCODING 118
SWIDTH 535 0
DWIDTH 15 0
BBX 13 14 1 0
BITMAP
E018
E038
E038
7030
7070
3860
38E0
18C0
1CC0
1DC0
0F80
0F80
0700
0700
ENDCHAR
STARTCHAR 0077
ENCODING 119
SWIDTH 821 0
DWIDTH 23 0
BBX 21 14 1 0
BITMAP
C07018
E0F838
E0F838
60D830
61D870
719C70
318C60
338CE0
3B0EE0
1B06C0
1B07C0
1E0780
0E0380
0E0380
ENDCHAR
STARTCHAR 0078
ENCODING 120
SWIDTH 535 0
DWIDTH 15 0
BBX 13 14 1 0
BITMAP
F038
7070
3860
1CE0
1FC0
0F80
0700
0780
0FC0
1DC0
38E0
7070
7078
E038
ENDCHAR
STARTCHAR 0079
ENCODING 121
SWIDTH 535 0
DWIDTH 15 0
BBX 13 19 1 -5
BITMAP
E018
E038
6038
7070
7070
3860
38E0
1CE0
1DC0
0DC0
0F80
0F80
0780
0700
0700
0600
0E00
0E00
0C00
ENDCHAR
STARTCHAR 007A
ENCODING 122
SWIDTH 428 0
DWIDTH 12 0
BBX 10 14 1 0
BITMAP
FFC0
FFC0
01C0
0380
0700
0E00
0E00
1C00
3800
3000
7000
E000
FFC0
FFC0
ENDCHAR
STARTCHAR 007B
ENCODING 123
SWIDTH 464 0
DWIDTH 13 0
BBX 9 27 2 -7
BITMAP
0380
0F80
0E00
0C00
1C00
1C00
1C00
1C00
1C00
1C00
1C00
3800
F800
F000
F000
3800
1800
1C00
1C00
1C00
1C00
0C00
0C00
0C00
0E00
0F80
0380
ENDCHAR
STARTCHAR 007C
ENCODING 124
SWIDTH 321 0
DWIDTH 9 0
BBX 1 29 4 -7
BITMAP
80
80
80
80
80
80
80
80
80
80
80
80
80
80
80
80
80
80
80
80
80
80
80
80
80
80
80
80
80
ENDCHAR
STARTCHAR 007D
ENCODING 125
SWIDTH 464 0
DWIDTH 13 0
BBX 9 27 2 -7
BITMAP
F000
F800
1800
1C00
1C00
1C00
1C00
1C00
1C00
0C00
0C00
0E00
0780
0380
0780
0E00
0C00
0C00
1C00
1C00
1C00
1C00
1C00
1C00
1800
F800
F000
ENDCHAR
STARTCHAR 007E
ENCODING 126
SWIDTH 535 0
DWIDTH 15 0
BBX 15 3 0 5
BITMAP
3E0E
7FFC
E0F8
ENDCHAR
STARTCHAR 00A0
ENCODING 160
SWIDTH 285 0
DWIDTH 8 0
BBX 0 0 0 0
BITMAP
ENDCHAR
STARTCHAR 00A1
ENCODING 161
SWIDTH 357 0
DWIDTH 10 0
BBX 3 19 4 -5
BITMAP
E0
E0
E0
00
00
E0
E0
E0
E0
E0
E0
E0
E0
E0
E0
E0
E0
E0
E0
ENDCHAR
STARTCHAR 00A2
ENCODING 162
SWIDTH 571 0
DWIDTH 16 0
BBX 12 20 2 -3
BITMAP
00C0
0080
0080
1F80
3FC0
7160
E360
E200
E200
E600
E400
E400
EC70
E860
78E0
3FC0
1F80
1000
3000
3000
ENDCHAR
STARTCHAR 00A3
ENCODING 163
SWIDTH 571 0
DWIDTH 16 0
BBX 14 20 1 0
BITMAP
07E0
1FF8
3C3C
381C
3800
3800
3800
FF80
FF80
3800
3800
3800
3800
3800
3800
3800
3800
3800
FFF8
FFF8
ENDCHAR
STARTCHAR 00A4
ENCODING 164
SWIDTH 642 0
DWIDTH 18 0
BBX 16 14 1 4
BITMAP
C003
6186
37EC
1C38
1818
300C
300C
300C
300C
1818
1C38
3FFC
73C6
C003
ENDCHAR
STARTCHAR 00A5
ENCODING 165
SWIDTH 607 0
DWIDTH 17 0
BBX 15 20 1 0
BITMAP
E00E
E01C
701C
3038
3838
1870
FC7E
FCFE
0EE0
07C0
FFFE
FFFE
0380
0380
0380
0380
0380
0380
0380
0380
ENDCHAR
STARTCHAR 00A6
ENCODING 166
SWIDTH 321 0
DWIDTH 9 0
BBX 1 25 4 -5
BITMAP
80
80
80
80
80
80
80
80
80
80
80
00
00
00
80
80
80
80
80
80
80
80
80
80
80
ENDCHAR
STARTCHAR 00A7
ENCODING 167
SWIDTH 428 0
DWIDTH 12 0
BBX 10 25 1 -5
BITMAP
1F00
3F80
7000
E000
E000
7000
7800
3E00
1F00
7F80
71C0
E1C0
E1C0
E180
F780
7E00
1F00
0780
03C0
01C0
01C0
01C0
8380
FF00
3C00
ENDCHAR
STARTCHAR 00A8
ENCODING 168
SWIDTH 285 0
DWIDTH 8 0
BBX 8 3 0 17
BITMAP
E7
E7
E7
ENDCHAR
STARTCHAR 00A9
ENCODING 169
SWIDTH 892 0
DWIDTH 25 0
BBX 21 20 2 0
BITMAP
01FC00
07FF00
1C0380
3870C0
23FE60
678E30
C70710
860718
8E0008
8E0008
8E0008
860008
860718
C70710
43FE10
20F820
300040
1C0180
078F00
01FC00
ENDCHAR
STARTCHAR 00AA
ENCODING 170
SWIDTH 428 0
DWIDTH 12 0
BBX 10 13 1 7
BITMAP
3F00
7F80
6180
0180
1F80
7F80
E180
C180
E380
7F80
1800
0000
FFC0
ENDCHAR
STARTCHAR 00AB
ENCODING 171
SWIDTH 571 0
DWIDTH 16 0
BBX 11 11 2 2
BITMAP
0C60
18E0
38C0
7180
6380
E300
6380
7180
38C0
18E0
0C60
ENDCHAR
STARTCHAR 00AC
ENCODING 172
SWIDTH 642 0
DWIDTH 18 0
BBX 15 6 2 6
BITMAP
FFFE
FFFE
0006
0006
0006
0006
ENDCHAR
STARTCHAR 00AE
ENCODING 174
SWIDTH 892 0
DWIDTH 25 0
BBX 21 20 2 0
BITMAP
01FC00
07FF00
1C0380
3BFCC0
23FE60
630330
C30310
830318
83FE08
83FC08
830608
830608
830318
C30310
430330
230360
3800C0
1C0380
07FF00
01FC00
ENDCHAR
STARTCHAR 00AF
ENCODING 175
SWIDTH 285 0
DWIDTH 8 0
BBX 8 2 0 17
BITMAP
FF
FF
ENDCHAR
STARTCHAR 00B0
ENCODING 176
SWIDTH 285 0
DWIDTH 8 0
BBX 6 6 1 14
BITMAP
78
CC
84
84
CC
78
ENDCHAR
STARTCHAR 00B1
ENCODING 177
SWIDTH 1035 0
DWIDTH 29 0
BBX 17 17 6 0
BITMAP
018000
018000
018000
018000
018000
FFFF80
FFFF80
018000
018000
018000
018000
018000
000000
000000
000000
FFFF80
FFFF80
ENDCHAR
STARTCHAR 00B2
ENCODING 178
SWIDTH 392 0
DWIDTH 11 0
BBX 9 11 1 9
BITMAP
3E00
7F00
E380
0380
0300
0700
1C00
3800
7000
FF80
FF80
ENDCHAR
STARTCHAR 00B3
ENCODING 179
SWIDTH 357 0
DWIDTH 10 0
BBX 8 11 1 9
BITMAP
3E
7F
C3
03
1E
1E
07
03
C3
7E
3C
ENDCHAR
STARTCHAR 00B4
ENCODING 180
SWIDTH 214 0
DWIDTH 6 0
BBX 5 5 2 16
BITMAP
38
30
60
E0
C0
ENDCHAR
STARTCHAR 00B6
ENCODING 182
SWIDTH 571 0
DWIDTH 16 0
BBX 13 24 1 -4
BITMAP
0FF8
3E20
7E20
7E20
FE20
FE20
FE20
7E20
3E20
1E20
0220
0220
0220
0220
0220
0220
0220
0220
0220
0220
0220
0220
0220
0220
ENDCHAR
STARTCHAR 00B7
ENCODING 183
SWIDTH 250 0
DWIDTH 7 0
BBX 3 3 2 8
BITMAP
E0
E0
E0
ENDCHAR
STARTCHAR 00B8
ENCODING 184
SWIDTH 250 0
DWIDTH 7 0
BBX 7 7 1 -7
BITMAP
20
20
3C
0E
06
FE
F8
ENDCHAR
STARTCHAR 00B9
ENCODING 185
SWIDTH 285 0
DWIDTH 8 0
BBX 4 10 2 10
BITMAP
70
F0
B0
30
30
30
30
30
30
30
ENDCHAR
STARTCHAR 00BA
ENCODING 186
SWIDTH 428 0
DWIDTH 12 0
BBX 10 12 1 8
BITMAP
1E00
6380
C180
C0C0
C0C0
C0C0
C0C0
C180
6380
1E00
0000
FFC0
ENDCHAR
STARTCHAR 00BB
ENCODING 187
SWIDTH 571 0
DWIDTH 16 0
BBX 12 11 2 2
BITMAP
E300
6380
3180
38C0
18E0
1C70
18E0
38C0
3180
6380
E300
ENDCHAR
STARTCHAR 00BC
ENCODING 188
SWIDTH 785 0
DWIDTH 22 0
BBX 18 20 2 0
BITMAP
700C00
F00C00
B01800
301800
303000
306000
306000
30C000
30C000
318300
310700
030F00
061F00
061B00
0C3300
0C6300
187FC0
100300
300300
600300
ENDCHAR
STARTCHAR 00BD
ENCODING 189
SWIDTH 785 0
DWIDTH 22 0
BBX 18 20 2 0
BITMAP
700C00
F01800
B01800
303000
303000
306000
304000
30C000
308000
318F00
331F80
0331C0
0601C0
0601C0
0C0380
080700
180E00
101800
303FC0
603FC0
ENDCHAR
STARTCHAR 00BE
ENCODING 190
SWIDTH 785 0
DWIDTH 22 0
BBX 20 20 1 0
BITMAP
3E0180
7F0300
C30300
030600
1C0600
1E0C00
031800
C31800
C73000
7E30C0
3861C0
0063C0
00C6C0
0186C0
018CC0
0318C0
031FF0
0600C0
0C00C0
0C00C0
ENDCHAR
STARTCHAR 00BF
ENCODING 191
SWIDTH 535 0
DWIDTH 15 0
BBX 12 19 2 -5
BITMAP
0700
0700
0700
0000
0000
0700
0700
0700
0F00
1E00
3800
7000
E000
E000
E000
E070
7FE0
3FE0
1F80
ENDCHAR
STARTCHAR 00C0
ENCODING 192
SWIDTH 750 0
DWIDTH 21 0
BBX 19 27 1 0
BITMAP
070000
038000
018000
00C000
006000
000000
000000
00E000
01F000
01F000
03B000
03B800
033800
071C00
071C00
0E0E00
0E0E00
1E0F00
1C0700
1C0700
3FFF80
3FFF80
7001C0
7001C0
E000E0
E000E0
E000E0
ENDCHAR
STARTCHAR 00C1
ENCODING 193
SWIDTH 750 0
DWIDTH 21 0
BBX 19 27 1 0
BITMAP
001C00
003800
003000
006000
00C000
000000
000000
00E000
01F000
01F000
03B000
03B800
033800
071C00
071C00
0E0E00
0E0E00
1E0F00
1C0700
1C0700
3FFF80
3FFF80
7001C0
7001C0
E000E0
E000E0
E000E0
ENDCHAR
STARTCHAR 00C2
ENCODING 194
SWIDTH 750 0
DWIDTH 21 0
BBX 19 27 1 0
BITMAP
00E000
01F000
01B000
031800
060C00
000000
000000
00E000
01F000
01F000
03B000
03B800
033800
071C00
071C00
0E0E00
0E0E00
1E0F00
1C0700
1C0700
3FFF80
3FFF80
7001C0
7001C0
E000E0
E000E0
E000E0
ENDCHAR
STARTCHAR 00C3
ENCODING 195
SWIDTH 750 0
DWIDTH 21 0
BBX 19 26 1 0
BITMAP
018C00
03F800
067000
000000
000000
000000
00E000
01F000
01F000
03B000
03B800
033800
071C00
071C00
0E0E00
0E0E00
1E0F00
1C0700
1C0700
3FFF80
3FFF80
7001C0
7001C0
E000E0
E000E0
E000E0
ENDCHAR
STARTCHAR 00C4
ENCODING 196
SWIDTH 750 0
DWIDTH 21 0
BBX 19 26 1 0
BITMAP
039C00
039C00
039C00
000000
000000
000000
00E000
00F000
01F000
01B800
03B800
039800
071C00
071C00
070E00
0E0E00
0E0F00
1C0700
1C0700
3FFF80
3FFF80
3801C0
7001C0
7000E0
E000E0
E000E0
ENDCHAR
STARTCHAR 00C5
ENCODING 197
SWIDTH 750 0
DWIDTH 21 0
BBX 20 28 0 0
BITMAP
00F000
019800
010800
010800
019800
00F000
000000
000000
00F000
00F000
00F800
01F800
01DC00
039C00
039E00
070E00
070E00
070700
0E0700
0E0780
1E0380
1FFFC0
1FFFC0
3801C0
3800E0
7000E0
700070
E00070
ENDCHAR
STARTCHAR 00C6
ENCODING 198
SWIDTH 1000 0
DWIDTH 28 0
BBX 25 20 1 0
BITMAP
003FFF80
007FFF80
007E0000
00EE0000
00EE0000
01CE0000
01CE0000
03CE0000
038E0000
078FFF80
070FFF80
0F0E0000
0E0E0000
1FFE0000
3FFE0000
380E0000
780E0000
700E0000
E00FFF80
E00FFF80
ENDCHAR
STARTCHAR 00C7
ENCODING 199
SWIDTH 678 0
DWIDTH 19 0
BBX 16 27 2 -7
BITMAP
07F0
1FFC
3C0E
3006
7007
6000
E000
E000
E000
E000
E000
E000
E000
E000
6000
6007
3006
380E
1FFC
07F0
0080
00E0
00F8
0018
0018
03F8
01E0
ENDCHAR
STARTCHAR 00C8
ENCODING 200
SWIDTH 607 0
DWIDTH 17 0
BBX 13 27 2 0
BITMAP
1800
1C00
0E00
0600
0300
0000
0000
FFF8
FFF8
E000
E000
E000
E000
E000
E000
E000
FFF0
FFF0
E000
E000
E000
E000
E000
E000
E000
FFF8
FFF8
ENDCHAR
STARTCHAR 00C9
ENCODING 201
SWIDTH 607 0
DWIDTH 17 0
BBX 13 27 2 0
BITMAP
01C0
0180
0300
0600
0400
0000
0000
FFF8
FFF8
E000
E000
E000
E000
E000
E000
E000
FFF0
FFF0
E000
E000
E000
E000
E000
E000
E000
FFF8
FFF8
ENDCHAR
STARTCHAR 00CA
ENCODING 202
SWIDTH 607 0
DWIDTH 17 0
BBX 13 27 2 0
BITMAP
0F00
0F00
1980
10C0
30C0
0000
0000
FFF8
FFF8
E000
E000
E000
E000
E000
E000
E000
FFF0
FFF0
E000
E000
E000
E000
E000
E000
E000
FFF8
FFF8
ENDCHAR
STARTCHAR 00CB
ENCODING 203
SWIDTH 607 0
DWIDTH 17 0
BBX 13 26 2 0
BITMAP
38E0
38E0
38E0
0000
0000
0000
FFF8
FFF8
E000
E000
E000
E000
E000
E000
E000
FFF0
FFF0
E000
E000
E000
E000
E000
E000
E000
FFF8
FFF8
ENDCHAR
STARTCHAR 00CC
ENCODING 204
SWIDTH 250 0
DWIDTH 7 0
BBX 5 27 0 0
BITMAP
E0
60
30
30
18
00
00
38
38
38
38
38
38
38
38
38
38
38
38
38
38
38
38
38
38
38
38
ENDCHAR
STARTCHAR 00CD
ENCODING 205
SWIDTH 250 0
DWIDTH 7 0
BBX 5 27 2 0
BITMAP
38
70
60
C0
80
00
00
E0
E0
E0
E0
E0
E0
E0
E0
E0
E0
E0
E0
E0
E0
E0
E0
E0
E0
E0
E0
ENDCHAR
STARTCHAR 00CE
ENCODING 206
SWIDTH 250 0
DWIDTH 7 0
BBX 8 27 -1 0
BITMAP
1C
3E
76
63
C1
00
00
1C
1C
1C
1C
1C
1C
1C
1C
1C
1C
1C
1C
1C
1C
1C
1C
1C
1C
1C
1C
ENDCHAR
STARTCHAR 00CF
ENCODING 207
SWIDTH 285 0
DWIDTH 8 0
BBX 8 26 0 0
BITMAP
E3
E3
E3
00
00
00
1C
1C
1C
1C
1C
1C
1C
1C
1C
1C
1C
1C
1C
1C
1C
1C
1C
1C
1C
1C
ENDCHAR
STARTCHAR 00D0
ENCODING 208
SWIDTH 714 0
DWIDTH 20 0
BBX 19 20 0 0
BITMAP
3FF000
3FFE00
381F00
380780
380380
3801C0
3801C0
3800C0
3800E0
FFC0E0
FFC0E0
3800E0
3800C0
3801C0
3801C0
380380
380780
381F00
3FFE00
3FF000
ENDCHAR
STARTCHAR 00D1
ENCODING 209
SWIDTH 714 0
DWIDTH 20 0
BBX 16 26 2 0
BITMAP
0630
0FE0
09E0
0000
0000
0000
F007
F807
F807
FC07
FC07
EE07
EE07
E707
E787
E387
E3C7
E1C7
E0E7
E0E7
E077
E077
E03F
E03F
E01F
E01F
ENDCHAR
STARTCHAR 00D2
ENCODING 210
SWIDTH 785 0
DWIDTH 22 0
BBX 18 28 2 0
BITMAP
070000
038000
018000
00C000
004000
000000
000000
000000
03F000
0FFC00
3E1F00
380700
700380
600180
E001C0
E001C0
E001C0
E001C0
E001C0
E001C0
E001C0
6001C0
700380
700380
380700
1E1E00
0FFC00
03F000
ENDCHAR
STARTCHAR 00D3
ENCODING 211
SWIDTH 785 0
DWIDTH 22 0
BBX 18 28 2 0
BITMAP
003800
007000
006000
00C000
008000
000000
000000
000000
03F000
0FFC00
3E1F00
380700
700380
600180
E001C0
E001C0
E001C0
E001C0
E001C0
E001C0
E001C0
6001C0
700380
700380
380700
1E1E00
0FFC00
03F000
ENDCHAR
STARTCHAR 00D4
ENCODING 212
SWIDTH 785 0
DWIDTH 22 0
BBX 18 28 2 0
BITMAP
01E000
01E000
03F000
033000
061800
000000
000000
000000
03F000
0FFC00
3E1F00
380700
700380
600180
E001C0
E001C0
E001C0
E001C0
E001C0
E001C0
E001C0
6001C0
700380
700380
380700
1E1E00
0FFC00
03F000
ENDCHAR
STARTCHAR 00D5
ENCODING 213
SWIDTH 785 0
DWIDTH 22 0
BBX 18 26 2 0
BITMAP
039800
07F800
067000
000000
000000
000000
03F000
0FFC00
3E1F00
380700
700380
600180
E001C0
E001C0
E001C0
E001C0
E001C0
E001C0
E001C0
6001C0
700380
700380
380700
1F3E00
0FFC00
03F000
ENDCHAR
STARTCHAR 00D6
ENCODING 214
SWIDTH 785 0
DWIDTH 22 0
BBX 18 26 2 0
BITMAP
071C00
071C00
071C00
000000
000000
000000
03F000
0FFC00
3E1F00
380700
700380
600180
E001C0
E001C0
E001C0
E001C0
E001C0
E001C0
E001C0
6001C0
700380
700380
380700
1E1E00
0FFC00
03F000
ENDCHAR
STARTCHAR 00D7
ENCODING 215
SWIDTH 1000 0
DWIDTH 28 0
BBX 16 15 6 1
BITMAP
4002
E007
700E
381C
0C38
0660
03C0
0180
03C0
0660
0C30
1818
300C
6006
4002
ENDCHAR
STARTCHAR 00D8
ENCODING 216
SWIDTH 785 0
DWIDTH 22 0
BBX 18 24 2 -2
BITMAP
000080
0001C0
03FB80
0FFF00
3E1F00
380F80
701F80
601D80
E039C0
E071C0
E071C0
E0E1C0
E1C1C0
E3C1C0
E381C0
E70180
6F0380
7E0380
3C0700
3E1E00
3FFC00
73F000
E00000
600000
ENDCHAR
STARTCHAR 00D9
ENCODING 217
SWIDTH 714 0
DWIDTH 20 0
BBX 16 28 2 0
BITMAP
0E00
0700
0300
0180
0080
0000
0000
0000
E007
E007
E007
E007
E007
E007
E007
E007
E007
E007
E007
E007
E007
E007
E007
600E
700E
3E7C
1FF8
0FE0
ENDCHAR
STARTCHAR 00DA
ENCODING 218
SWIDTH 714 0
DWIDTH 20 0
BBX 16 28 2 0
BITMAP
0070
00E0
00C0
0180
0100
0000
0000
0000
E007
E007
E007
E007
E007
E007
E007
E007
E007
E007
E007
E007
E007
E007
E007
600E
700E
3E7C
1FF8
0FE0
ENDCHAR
STARTCHAR 00DB
ENCODING 219
SWIDTH 714 0
DWIDTH 20 0
BBX 16 28 2 0
BITMAP
03C0
03C0
07E0
0660
0C30
0000
0000
0000
E007
E007
E007
E007
E007
E007
E007
E007
E007
E007
E007
E007
E007
E007
E007
600E
700E
3E7C
1FF8
0FE0
ENDCHAR
STARTCHAR 00DC
ENCODING 220
SWIDTH 714 0
DWIDTH 20 0
BBX 16 26 2 0
BITMAP
0E38
0E38
0E38
0000
0000
0000
E007
E007
E007
E007
E007
E007
E007
E007
E007
E007
E007
E007
E007
E007
E007
6006
700E
3C3C
1FF8
0FE0
ENDCHAR
STARTCHAR 00DD
ENCODING 221
SWIDTH 678 0
DWIDTH 19 0
BBX 17 27 1 0
BITMAP
007000
006000
00C000
008000
018000
000000
000000
E00380
F00700
700700
380E00
3C1C00
1C1C00
0E3800
0E3000
077000
076000
03E000
01C000
01C000
01C000
01C000
01C000
01C000
01C000
01C000
01C000
ENDCHAR
STARTCHAR 00DE
ENCODING 222
SWIDTH 607 0
DWIDTH 17 0
BBX 14 20 2 0
BITMAP
E000
E000
E000
E000
FFC0
FFF0
E078
E038
E01C
E01C
E01C
E038
E078
FFF0
FFC0
E000
E000
E000
E000
E000
ENDCHAR
STARTCHAR 00DF
ENCODING 223
SWIDTH 535 0
DWIDTH 15 0
BBX 14 20 1 0
BITMAP
0F80
3FE0
7070
E070
E070
E070
E1E0
E380
E700
E700
E380
E3E0
E0F8
E038
E01C
E01C
EE1C
E61C
E7F8
E1F0
ENDCHAR
STARTCHAR 00E0
ENCODING 224
SWIDTH 535 0
DWIDTH 15 0
BBX 12 21 1 0
BITMAP
0C00
0E00
0600
0300
0180
0000
0000
1FC0
3FE0
7070
7070
0070
0FF0
3FF0
7070
E070
E070
E070
E0F0
7FB0
1E30
ENDCHAR
STARTCHAR 00E1
ENCODING 225
SWIDTH 535 0
DWIDTH 15 0
BBX 12 22 1 0
BITMAP
01C0
0180
0300
0300
0600
0C00
0000
0000
1FC0
3FE0
7070
7070
0070
0FF0
3FF0
7070
E070
E070
E070
E0F0
7FB0
1E30
ENDCHAR
STARTCHAR 00E2
ENCODING 226
SWIDTH 535 0
DWIDTH 15 0
BBX 12 22 1 0
BITMAP
0700
0F00
0D80
1D80
18C0
3040
0000
0000
1FC0
3FE0
7070
7070
0070
0FF0
3FF0
7070
E070
E070
E070
E0F0
7FB0
1E30
ENDCHAR
STARTCHAR 00E3
ENCODING 227
SWIDTH 535 0
DWIDTH 15 0
BBX 12 20 1 0
BITMAP
1E40
1FC0
3180
0000
0000
0000
1FC0
3FE0
7070
7070
0070
0FF0
3FF0
7070
E070
E070
E070
E0F0
7FB0
1E30
ENDCHAR
STARTCHAR 00E4
ENCODING 228
SWIDTH 535 0
DWIDTH 15 0
BBX 12 20 1 0
BITMAP
38E0
38E0
38E0
0000
0000
0000
1FC0
3FE0
7070
7070
0070
0FF0
3FF0
7070
E070
E070
E070
E0F0
7FB0
1E30
ENDCHAR
STARTCHAR 00E5
ENCODING 229
SWIDTH 535 0
DWIDTH 15 0
BBX 12 23 1 0
BITMAP
0F00
1980
1080
1080
1980
0F00
0000
0000
0000
1FC0
3FE0
7070
7070
0070
0FF0
3FF0
7070
E070
E070
E070
E0F0
7FB0
1E30
ENDCHAR
STARTCHAR 00E6
ENCODING 230
SWIDTH 892 0
DWIDTH 25 0
BBX 23 14 1 0
BITMAP
1F83F0
3FCFF8
706C1C
70380C
00380E
0FFFFE
3FFFFE
783800
E03800
E0380E
E0780C
F0EC1C
7FC7F8
1F03F0
ENDCHAR
STARTCHAR 00E7
ENCODING 231
SWIDTH 500 0
DWIDTH 14 0
BBX 12 21 1 -7
BITMAP
1F80
3FE0
7070
E070
E070
E000
E000
E000
E000
E070
E070
70E0
3FE0
1F80
0400
0780
07C0
0060
0060
1FC0
0F00
ENDCHAR
STARTCHAR 00E8
ENCODING 232
SWIDTH 535 0
DWIDTH 15 0
BBX 13 22 1 0
BITMAP
3800
1C00
0C00
0600
0600
0300
0000
0000
0F80
3FE0
7070
6030
E038
FFF8
FFF8
E000
E000
E038
6070
7070
3FE0
0F80
ENDCHAR
STARTCHAR 00E9
ENCODING 233
SWIDTH 535 0
DWIDTH 15 0
BBX 13 22 1 0
BITMAP
01C0
0180
0380
0300
0600
0400
0000
0000
0F80
3FE0
7070
6030
E038
FFF8
FFF8
E000
E000
E038
6070
7070
3FE0
0F80
ENDCHAR
STARTCHAR 00EA
ENCODING 234
SWIDTH 535 0
DWIDTH 15 0
BBX 13 22 1 0
BITMAP
0700
0F00
0F80
1980
18C0
3040
0000
0000
0F80
3FE0
7070
6030
E038
FFF8
FFF8
E000
E000
E038
6070
7070
3FE0
0F80
ENDCHAR
STARTCHAR 00EB
ENCODING 235
SWIDTH 535 0
DWIDTH 15 0
BBX 13 20 1 0
BITMAP
38E0
38E0
38E0
0000
0000
0000
0FC0
3FE0
7070
6038
E038
FFF8
FFF8
E000
E000
E038
6038
7070
3FE0
0F80
ENDCHAR
STARTCHAR 00EC
ENCODING 236
SWIDTH 250 0
DWIDTH 7 0
BBX 5 21 0 0
BITMAP
E0
60
30
30
18
00
00
38
38
38
38
38
38
38
38
38
38
38
38
38
38
ENDCHAR
STARTCHAR 00ED
ENCODING 237
SWIDTH 250 0
DWIDTH 7 0
BBX 5 21 2 0
BITMAP
38
70
60
C0
80
00
00
E0
E0
E0
E0
E0
E0
E0
E0
E0
E0
E0
E0
E0
E0
ENDCHAR
STARTCHAR 00EE
ENCODING 238
SWIDTH 250 0
DWIDTH 7 0
BBX 8 21 -1 0
BITMAP
3C
3E
76
63
C1
00
00
1C
1C
1C
1C
1C
1C
1C
1C
1C
1C
1C
1C
1C
1C
ENDCHAR
STARTCHAR 00EF
ENCODING 239
SWIDTH 250 0
DWIDTH 7 0
BBX 8 20 -1 0
BITMAP
E3
E3
E3
00
00
00
1C
1C
1C
1C
1C
1C
1C
1C
1C
1C
1C
1C
1C
1C
ENDCHAR
STARTCHAR 00F0
ENCODING 240
SWIDTH 571 0
DWIDTH 16 0
BBX 14 20 1 0
BITMAP
3020
39E0
0F00
1F80
71C0
00E0
0FF0
3FF0
7878
7038
E018
E01C
E01C
E01C
E01C
E018
6038
7070
3FE0
0FC0
ENDCHAR
STARTCHAR 00F1
ENCODING 241
SWIDTH 571 0
DWIDTH 16 0
BBX 12 20 2 0
BITMAP
1CC0
3FC0
3380
0000
0000
0000
EF80
FFE0
F0F0
E070
E070
E070
E070
E070
E070
E070
E070
E070
E070
E070
ENDCHAR
STARTCHAR 00F2
ENCODING 242
SWIDTH 571 0
DWIDTH 16 0
BBX 14 22 1 0
BITMAP
1C00
0C00
0E00
0600
0300
0100
0000
0000
0FC0
3FE0
7070
7038
E018
E01C
E01C
E01C
E01C
E018
7038
7070
3FE0
0FC0
ENDCHAR
STARTCHAR 00F3
ENCODING 243
SWIDTH 571 0
DWIDTH 16 0
BBX 14 22 1 0
BITMAP
00E0
01C0
0180
0300
0300
0600
0000
0000
0FC0
3FE0
7070
7038
E018
E01C
E01C
E01C
E01C
E018
7038
7070
3FE0
0FC0
ENDCHAR
STARTCHAR 00F4
ENCODING 244
SWIDTH 571 0
DWIDTH 16 0
BBX 14 22 1 0
BITMAP
0700
0780
0F80
0CC0
18C0
1860
0000
0000
0FC0
3FE0
7070
7038
E018
E01C
E01C
E01C
E01C
E018
7038
7070
3FE0
0FC0
ENDCHAR
STARTCHAR 00F5
ENCODING 245
SWIDTH 571 0
DWIDTH 16 0
BBX 14 20 1 0
BITMAP
0E60
1FC0
1180
0000
0000
0000
0FC0
3FE0
7070
7038
E018
E01C
E01C
E01C
E01C
E018
7038
7070
3FE0
0FC0
ENDCHAR
STARTCHAR 00F6
ENCODING 246
SWIDTH 571 0
DWIDTH 16 0
BBX 14 20 1 0
BITMAP
1CE0
1CE0
1CE0
0000
0000
0000
0FC0
3FE0
7070
7038
E018
E01C
E01C
E01C
E01C
E018
7038
7070
3FE0
0FC0
ENDCHAR
STARTCHAR 00F7
ENCODING 247
SWIDTH 1035 0
DWIDTH 29 0
BBX 17 12 6 2
BITMAP
01C000
01C000
01C000
000000
000000
FFFF80
FFFF80
000000
000000
01C000
01C000
01C000
ENDCHAR
STARTCHAR 00F8
ENCODING 248
SWIDTH 571 0
DWIDTH 16 0
BBX 14 18 1 -2
BITMAP
0008
0018
0FF8
3FF0
7070
70F8
E1D8
E198
E31C
E61C
EE1C
EC18
7838
7070
7FE0
6FC0
C000
8000
ENDCHAR
STARTCHAR 00F9
ENCODING 249
SWIDTH 571 0
DWIDTH 16 0
BBX 12 22 2 0
BITMAP
3800
1800
0C00
0C00
0600
0300
0000
0000
E070
E070
E070
E070
E070
E070
E070
E070
E070
E070
E070
F0F0
7FF0
3F70
ENDCHAR
STARTCHAR 00FA
ENCODING 250
SWIDTH 571 0
DWIDTH 16 0
BBX 12 22 2 0
BITMAP
01C0
0180
0300
0700
0600
0C00
0000
0000
E070
E070
E070
E070
E070
E070
E070
E070
E070
E070
E070
F0F0
7FF0
3F70
ENDCHAR
STARTCHAR 00FB
ENCODING 251
SWIDTH 571 0
DWIDTH 16 0
BBX 12 22 2 0
BITMAP
0600
0F00
0F00
1980
1080
30C0
0000
0000
E070
E070
E070
E070
E070
E070
E070
E070
E070
E070
E070
F0F0
7FF0
3F70
ENDCHAR
STARTCHAR 00FC
ENCODING 252
SWIDTH 571 0
DWIDTH 16 0
BBX 12 20 2 0
BITMAP
39C0
39C0
39C0
0000
0000
0000
E070
E070
E070
E070
E070
E070
E070
E070
E070
E070
E070
F0F0
7FF0
3F70
ENDCHAR
STARTCHAR 00FD
ENCODING 253
SWIDTH 535 0
DWIDTH 15 0
BBX 13 27 1 -5
BITMAP
00E0
01C0
0180
0300
0200
0000
0000
0000
E018
E038
6038
7070
7070
3860
38E0
1CE0
1DC0
0DC0
0F80
0780
0780
0700
0700
0600
EE00
FC00
7800
ENDCHAR
STARTCHAR 00FE
ENCODING 254
SWIDTH 607 0
DWIDTH 17 0
BBX 14 25 2 -5
BITMAP
E000
E000
E000
E000
E000
E000
E7C0
FFF0
F070
F038
E018
E01C
E01C
E01C
E01C
E018
E038
F070
FFF0
E7C0
E000
E000
E000
E000
E000
ENDCHAR
STARTCHAR 00FF
ENCODING 255
SWIDTH 500 0
DWIDTH 14 0
BBX 14 25 0 -5
BITMAP
1CE0
1CE0
1CE0
0000
0000
0000
E01C
7018
7038
3038
3870
3870
1C60
1CE0
0EE0
0EC0
07C0
0780
0380
0380
0300
0700
0600
0600
0E00
ENDCHAR
STARTCHAR 0131
ENCODING 305
SWIDTH 250 0
DWIDTH 7 0
BBX 3 14 2 0
BITMAP
E0
E0
E0
E0
E0
E0
E0
E0
E0
E0
E0
E0
E0
E0
ENDCHAR
STARTCHAR 0141
ENCODING 321
SWIDTH 607 0
DWIDTH 17 0
BBX 15 20 1 0
BITMAP
1C00
1C00
1C00
1C00
1C80
1D80
1F80
1E00
1C00
1C00
3C00
7C00
DC00
9C00
1C00
1C00
1C00
1C00
1FFE
1FFE
ENDCHAR
STARTCHAR 0142
ENCODING 322
SWIDTH 321 0
DWIDTH 9 0
BBX 7 20 1 0
BITMAP
38
38
38
38
38
3A
3E
3C
38
38
78
F8
B8
38
38
38
38
38
38
38
ENDCHAR
STARTCHAR 0152
ENCODING 338
SWIDTH 1035 0
DWIDTH 29 0
BBX 25 20 2 0
BITMAP
03FFFF80
0FFFFF80
1E1F0000
38070000
70070000
70070000
E0070000
E0070000
E0070000
E007FF00
E007FF00
E0070000
E0070000
E0070000
70070000
70070000
38070000
1E0F0000
0FFFFF80
03FFFF80
ENDCHAR
STARTCHAR 0153
ENCODING 339
SWIDTH 928 0
DWIDTH 26 0
BBX 24 14 1 0
BITMAP
0F83F0
3FE7FC
707E0E
603C06
E03807
E03FFF
E03FFF
E03800
E03800
E03807
603C06
706E0E
3FE7FC
0F83F0
ENDCHAR
STARTCHAR 0160
ENCODING 352
SWIDTH 678 0
DWIDTH 19 0
BBX 15 27 2 0
BITMAP
0860
0C60
06C0
07C0
0380
0000
0000
0FC0
3FF0
7878
601C
E01C
E000
E000
7800
7F00
3FF0
07FC
003C
000E
000E
E00E
E00E
E00E
783C
3FF8
0FC0
ENDCHAR
STARTCHAR 0161
ENCODING 353
SWIDTH 500 0
DWIDTH 14 0
BBX 12 21 1 0
BITMAP
30C0
3980
1B00
0F00
0E00
0000
0000
1F80
7FC0
70E0
E0E0
E000
7800
3F80
0FE0
00E0
0070
E070
E0E0
7FC0
3F80
ENDCHAR
STARTCHAR 0178
ENCODING 376
SWIDTH 642 0
DWIDTH 18 0
BBX 18 26 0 0
BITMAP
071800
071800
071800
000000
000000
000000
F003C0
780380
380700
3C0700
1C0E00
0E0E00
0F1C00
071800
03B800
03B000
01F000
00E000
00E000
00E000
00E000
00E000
00E000
00E000
00E000
00E000
ENDCHAR
STARTCHAR 017D
ENCODING 381
SWIDTH 607 0
DWIDTH 17 0
BBX 15 27 1 0
BITMAP
1840
18C0
0D80
0F80
0700
0000
0000
FFFC
FFFC
001C
0038
0078
00F0
00E0
01C0
03C0
0380
0700
0E00
1E00
1C00
3800
7000
F000
E000
FFFE
FFFE
ENDCHAR
STARTCHAR 017E
ENCODING 382
SWIDTH 428 0
DWIDTH 12 0
BBX 10 21 1 0
BITMAP
C300
6700
3600
3C00
1C00
0000
0000
FFC0
FFC0
01C0
0380
0700
0E00
0E00
1C00
3800
3000
7000
E000
FFC0
FFC0
ENDCHAR
STARTCHAR 0192
ENCODING 402
SWIDTH 500 0
DWIDTH 14 0
BBX 17 25 -2 -5
BITMAP
000F80
001F00
003800
003000
007000
007000
03FE00
03FC00
00E000
00C000
00C000
01C000
01C000
018000
038000
038000
030000
030000
070000
070000
060000
0E0000
0C0000
FC0000
F00000
ENDCHAR
STARTCHAR 02C6
ENCODING 710
SWIDTH 285 0
DWIDTH 8 0
BBX 8 5 0 16
BITMAP
1C
3C
7E
66
C3
ENDCHAR
STARTCHAR 02C7
ENCODING 711
SWIDTH 285 0
DWIDTH 8 0
BBX 8 5 0 16
BITMAP
C3
43
66
3C
3C
ENDCHAR
STARTCHAR 02D8
ENCODING 728
SWIDTH 285 0
DWIDTH 8 0
BBX 8 3 0 17
BITMAP
C3
7E
3C
ENDCHAR
STARTCHAR 02D9
ENCODING 729
SWIDTH 107 0
DWIDTH 3 0
BBX 3 3 0 16
BITMAP
E0
E0
E0
ENDCHAR
STARTCHAR 02DA
ENCODING 730
SWIDTH 214 0
DWIDTH 6 0
BBX 6 6 0 16
BITMAP
78
CC
84
84
CC
78
ENDCHAR
STARTCHAR 02DB
ENCODING 731
SWIDTH 214 0
DWIDTH 6 0
BBX 5 6 0 -6
BITMAP
20
40
C0
C0
F8
78
ENDCHAR
STARTCHAR 02DC
ENCODING 732
SWIDTH 285 0
DWIDTH 8 0
BBX 8 3 0 17
BITMAP
73
FF
CE
ENDCHAR
STARTCHAR 02DD
ENCODING 733
SWIDTH 285 0
DWIDTH 8 0
BBX 8 5 0 16
BITMAP
33
76
66
4C
CC
ENDCHAR
STARTCHAR 0394
ENCODING 916
SWIDTH 642 0
DWIDTH 18 0
BBX 18 20 0 0
BITMAP
004000
004000
00C000
00E000
01E000
017000
017000
027800
023800
063800
041C00
0C1C00
081E00
180E00
100E00
300700
200700
600380
7FFF80
FFFFC0
ENDCHAR
STARTCHAR 03A9
ENCODING 937
SWIDTH 821 0
DWIDTH 23 0
BBX 20 20 2 0
BITMAP
03F800
0E0F00
180380
3801C0
7001C0
7000E0
F000E0
E000E0
E000E0
E000E0
F000E0
7000E0
7001C0
3801C0
1C0380
0E0E00
030810
FF0FF0
FF0FF0
FF1FF0
ENDCHAR
STARTCHAR 03BC
ENCODING 956
SWIDTH 642 0
DWIDTH 18 0
BBX 15 19 2 -5
BITMAP
E070
E070
E070
E070
E070
E070
E070
E070
E070
E070
E070
E070
F0F0
FFBE
FF1E
E000
E000
E000
E000
ENDCHAR
STARTCHAR 03C0
ENCODING 960
SWIDTH 571 0
DWIDTH 16 0
BBX 15 15 0 -1
BITMAP
3FFE
7FFE
6C20
8C60
0C60
0C60
0C60
0C60
0C60
0C60
1860
1862
387E
383C
3038
ENDCHAR
STARTCHAR 2013
ENCODING 8211
SWIDTH 500 0
DWIDTH 14 0
BBX 14 2 0 6
BITMAP
FFFC
FFFC
ENDCHAR
STARTCHAR 2014
ENCODING 8212
SWIDTH 1000 0
DWIDTH 28 0
BBX 28 2 0 6
BITMAP
FFFFFFF0
FFFFFFF0
ENDCHAR
STARTCHAR 2018
ENCODING 8216
SWIDTH 250 0
DWIDTH 7 0
BBX 5 7 1 13
BITMAP
18
38
30
30
70
70
F0
ENDCHAR
STARTCHAR 2019
ENCODING 8217
SWIDTH 250 0
DWIDTH 7 0
BBX 5 7 1 13
BITMAP
38
70
70
70
60
E0
C0
ENDCHAR
STARTCHAR 201A
ENCODING 8218
SWIDTH 250 0
DWIDTH 7 0
BBX 5 7 1 -3
BITMAP
38
70
70
70
60
E0
C0
ENDCHAR
STARTCHAR 201C
ENCODING 8220
SWIDTH 428 0
DWIDTH 12 0
BBX 10 7 1 13
BITMAP
18C0
38C0
31C0
3180
7380
7380
F780
ENDCHAR
STARTCHAR 201D
ENCODING 8221
SWIDTH 428 0
DWIDTH 12 0
BBX 10 7 1 13
BITMAP
39C0
73C0
7380
7380
6300
E300
C600
ENDCHAR
STARTCHAR 201E
ENCODING 8222
SWIDTH 428 0
DWIDTH 12 0
BBX 10 7 1 -3
BITMAP
39C0
73C0
7380
7380
6300
E300
C600
ENDCHAR
STARTCHAR 2020
ENCODING 8224
SWIDTH 535 0
DWIDTH 15 0
BBX 13 24 1 -4
BITMAP
0700
0700
0700
0700
0700
0700
FFF8
FFF8
0700
0700
0700
0700
0700
0700
0700
0700
0700
0700
0700
0700
0700
0700
0700
0700
ENDCHAR
STARTCHAR 2021
ENCODING 8225
SWIDTH 535 0
DWIDTH 15 0
BBX 13 24 1 -4
BITMAP
0700
0700
0700
0700
0700
0700
FFF8
FFF8
0700
0700
0700
0700
0700
0700
0700
0700
FFF8
FFF8
0700
0700
0700
0700
0700
0700
ENDCHAR
STARTCHAR 2022
ENCODING 8226
SWIDTH 285 0
DWIDTH 8 0
BBX 6 6 1 6
BITMAP
78
FC
FC
FC
FC
78
ENDCHAR
STARTCHAR 2026
ENCODING 8230
SWIDTH 1000 0
DWIDTH 28 0
BBX 25 3 1 0
BITMAP
E01C0180
E01C0180
E01C0180
ENDCHAR
STARTCHAR 2030
ENCODING 8240
SWIDTH 1321 0
DWIDTH 37 0
BBX 35 20 1 0
BITMAP
1E00C00000
7F80C00000
6181800000
E1C1000000
E1C3000000
E1C6000000
E1C6000000
618C000000
7F88000000
1E18E00E00
0031F83F80
00339C71C0
00670E60C0
00470EE0E0
00C70EE0E0
01870EE0E0
01870E60C0
03030C71C0
0203FC3F80
0600F01F00
ENDCHAR
STARTCHAR 2039
ENCODING 8249
SWIDTH 357 0
DWIDTH 10 0
BBX 6 11 2 2
BITMAP
0C
18
38
70
60
E0
60
70
38
18
0C
ENDCHAR
STARTCHAR 203A
ENCODING 8250
SWIDTH 357 0
DWIDTH 10 0
BBX 6 11 2 2
BITMAP
E0
60
30
38
18
1C
18
38
30
60
E0
ENDCHAR
STARTCHAR 2044
ENCODING 8260
SWIDTH 571 0
DWIDTH 16 0
BBX 13 20 1 0
BITMAP
0008
0018
0030
0030
0060
0040
00C0
0180
0180
0300
0300
0600
0C00
0C00
1800
1800
3000
6000
6000
C000
ENDCHAR
STARTCHAR 2122
ENCODING 8482
SWIDTH 642 0
DWIDTH 18 0
BBX 15 8 1 12
BITMAP
FCC6
30C6
30CE
30AA
30AA
30AA
3092
3092
ENDCHAR
STARTCHAR 2202
ENCODING 8706
SWIDTH 571 0
DWIDTH 16 0
BBX 12 23 2 -1
BITMAP
3E00
7380
00C0
0040
0060
0020
0030
0030
0030
0030
1F30
38B0
7070
E070
E070
C070
C060
C060
C0E0
C0C0
41C0
6380
1E00
ENDCHAR
STARTCHAR 220F
ENCODING 8719
SWIDTH 857 0
DWIDTH 24 0
BBX 23 25 1 -3
BITMAP
FFFFFE
3FFFF8
1C0070
1C0070
1C0070
1C0070
1C0070
1C0070
1C0070
1C0070
1C0070
1C0070
1C0070
1C0070
1C0070
1C0070
1C0070
1C0070
1C0070
1C0070
1C0070
1C0070
1C0070
3E00F8
FF83FE
ENDCHAR
STARTCHAR 2211
ENCODING 8721
SWIDTH 750 0
DWIDTH 21 0
BBX 19 25 1 -3
BITMAP
FFFF80
7FFF80
780080
3C0080
1E0000
0E0000
0F0000
078000
03C000
01C000
01E000
00F000
007000
006000
00C000
008000
010000
030000
060020
0C0020
180060
3000C0
7FFFC0
FFFFC0
FFFFC0
ENDCHAR
STARTCHAR 2212
ENCODING 8722
SWIDTH 1000 0
DWIDTH 28 0
BBX 17 2 6 7
BITMAP
FFFF80
FFFF80
ENDCHAR
STARTCHAR 221A
ENCODING 8730
SWIDTH 571 0
DWIDTH 16 0
BBX 15 20 1 0
BITMAP
0006
000C
0008
0008
0008
0018
2010
E010
3010
1820
1820
0C20
0C60
0640
0640
0340
03C0
0180
0180
0080
ENDCHAR
STARTCHAR 221E
ENCODING 8734
SWIDTH 1000 0
DWIDTH 28 0
BBX 18 7 5 5
BITMAP
7C0F80
C738C0
81E040
80C040
81E040
C330C0
7E0F80
ENDCHAR
STARTCHAR 222B
ENCODING 8747
SWIDTH 464 0
DWIDTH 13 0
BBX 11 27 1 -6
BITMAP
00E0
03E0
0260
0200
0600
0600
0600
0600
0600
0600
0600
0600
0600
0600
0600
0600
0600
0600
0E00
0E00
0E00
0C00
0C00
0C00
EC00
F800
F000
ENDCHAR
STARTCHAR 2248
ENCODING 8776
SWIDTH 1000 0
DWIDTH 28 0
BBX 16 9 6 4
BITMAP
1800
7F83
C3FF
807C
0000
1C01
FF83
C1FF
8038
ENDCHAR
STARTCHAR 2260
ENCODING 8800
SWIDTH 1000 0
DWIDTH 28 0
BBX 17 13 6 2
BITMAP
000400
000E00
001C00
FFFF80
FFFF80
00E000
01C000
038000
FFFF80
FFFF80
1C0000
380000
300000
ENDCHAR
STARTCHAR 2264
ENCODING 8804
SWIDTH 1000 0
DWIDTH 28 0
BBX 17 16 6 0
BITMAP
000080
000780
003E00
01F000
0F8000
F80000
C00000
F80000
1F0000
01F000
003E00
000780
000080
000000
FFFF80
FFFF80
ENDCHAR
STARTCHAR 2265
ENCODING 8805
SWIDTH 1000 0
DWIDTH 28 0
BBX 17 15 6 1
BITMAP
F00000
7E0000
07C000
00F800
000F00
000180
000F00
00F800
07C000
3E0000
F00000
800000
000000
FFFF80
FFFF80
ENDCHAR
STARTCHAR 25CA
ENCODING 9674
SWIDTH 535 0
DWIDTH 15 0
BBX 13 22 1 0
BITMAP
0300
0700
0D80
0D80
18C0
18C0
3060
3060
6030
6010
C018
C018
4010
6030
2020
3060
1040
18C0
0D80
0D80
0700
0700
ENDCHAR
STARTCHAR FB01
ENCODING 64257
SWIDTH 607 0
DWIDTH 17 0
BBX 14 20 1 0
BITMAP
079C
0F9C
1C1C
1C00
1C00
1C00
FF9C
FF9C
1C1C
1C1C
1C1C
1C1C
1C1C
1C1C
1C1C
1C1C
1C1C
1C1C
1C1C
1C1C
ENDCHAR
STARTCHAR FB02
ENCODING 64258
SWIDTH 607 0
DWIDTH 17 0
BBX 14 20 1 0
BITMAP
079C
0F9C
1C1C
1C1C
1C1C
1C1C
FF9C
FF9C
1C1C
1C1C
1C1C
1C1C
1C1C
1C1C
1C1C
1C1C
1C1C
1C1C
1C1C
1C1C
ENDCHAR
ENDFONT
